<?xml version="1.0" standalone="no"?>
<!DOCTYPE svg PUBLIC "-//W3C//DTD SVG 20010904//EN"
 "http://www.w3.org/TR/2001/REC-SVG-20010904/DTD/svg10.dtd">
<svg version="1.0" xmlns="http://www.w3.org/2000/svg"
 width="4912.000000pt" height="3212.000000pt" viewBox="0 0 4912.000000 3212.000000"
 preserveAspectRatio="xMidYMid meet">
<metadata>
Created by potrace 1.16, written by Peter Selinger 2001-2019
</metadata>
<g transform="translate(0.000000,3212.000000) scale(0.100000,-0.100000)"
fill="#0c6525" stroke="none">
<path d="M22296 31939 c-328 -35 -673 -146 -971 -312 -101 -56 -948 -621
-12260 -8177 -1551 -1036 -3842 -2566 -5090 -3399 -1249 -834 -2305 -1542
-2348 -1575 -307 -232 -574 -553 -750 -903 -129 -257 -226 -592 -258 -891 -17
-165 -7 -513 20 -672 43 -251 82 -373 271 -845 71 -176 212 -531 315 -790 103
-258 270 -679 372 -935 102 -256 268 -674 370 -930 102 -256 268 -674 370
-930 102 -256 267 -672 368 -925 187 -470 415 -1043 740 -1860 366 -919 818
-2056 1100 -2765 192 -484 346 -872 742 -1865 332 -836 552 -1388 788 -1980
265 -667 310 -764 456 -980 387 -571 990 -966 1663 -1090 246 -44 524 -54 871
-30 33 2 146 7 250 10 105 3 219 8 255 10 36 2 151 7 255 10 105 3 224 7 265
10 41 3 154 7 250 10 96 3 218 7 270 10 52 3 160 7 240 10 80 3 197 7 260 10
63 3 180 7 260 10 80 3 192 7 250 10 58 2 173 7 255 10 83 3 200 7 260 10 107
5 234 9 520 20 77 3 187 7 245 10 58 3 175 7 260 10 85 3 198 7 250 10 52 2
169 7 260 10 91 3 203 8 250 10 47 3 164 7 260 10 96 3 209 8 250 10 41 3 161
7 265 10 105 4 219 8 255 10 36 2 151 7 255 10 105 3 215 8 245 10 30 3 150 7
265 10 116 3 230 8 255 10 25 2 140 7 255 10 116 3 230 8 255 10 25 2 140 7
255 10 116 3 230 8 255 10 25 2 142 7 260 10 118 3 231 8 250 10 19 2 136 7
260 10 124 4 236 8 250 10 14 2 131 7 260 10 129 4 242 9 250 10 8 1 125 6
260 10 135 4 247 8 250 10 3 1 118 6 255 10 138 4 257 8 265 10 8 1 121 6 250
10 129 3 246 8 260 10 14 2 126 6 250 10 124 3 241 8 260 10 19 2 136 7 260
10 124 4 236 8 250 10 14 2 131 7 260 10 129 4 242 9 250 10 8 1 125 6 260 10
135 4 247 8 250 10 3 1 118 6 255 10 138 4 252 8 255 10 3 1 118 6 255 10 138
4 257 8 265 10 8 1 121 6 250 10 129 3 246 8 260 10 14 2 126 6 250 10 124 3
241 8 260 10 19 2 136 7 260 10 124 4 236 8 250 10 14 2 131 7 260 10 129 4
242 9 250 10 8 1 125 6 260 10 135 4 247 8 250 10 3 1 118 6 255 10 138 4 252
8 255 10 3 1 118 6 255 10 138 4 257 8 265 10 8 1 121 6 250 10 129 3 246 8
260 10 14 2 131 7 260 10 129 4 242 9 250 10 8 1 123 6 255 10 132 4 247 8
255 10 8 1 123 6 255 10 132 4 247 8 255 10 8 1 125 6 260 10 135 4 247 8 250
10 3 1 118 6 255 10 138 4 257 8 265 10 8 1 121 6 250 10 129 3 246 8 260 10
14 2 126 6 250 10 124 3 241 8 260 10 19 2 136 7 260 10 124 4 236 8 250 10
14 2 131 7 260 10 129 4 242 9 250 10 8 1 123 6 255 10 132 4 247 8 255 10 8
1 125 6 260 10 135 4 247 8 250 10 3 1 118 6 255 10 138 4 257 8 265 10 8 1
121 6 250 10 129 3 246 8 260 10 14 2 124 6 245 10 121 3 240 8 265 10 25 2
142 7 260 10 118 3 231 8 250 10 19 2 134 7 255 10 121 4 240 8 265 10 25 2
137 6 250 10 113 3 225 8 250 10 25 2 142 7 260 10 118 3 231 8 250 10 19 2
136 7 260 10 124 3 241 8 260 10 19 2 132 7 250 10 118 3 235 8 260 10 25 2
137 7 250 10 113 3 230 8 260 10 30 2 147 7 260 10 113 3 225 8 250 10 25 2
140 7 255 10 116 4 235 8 265 10 30 2 143 6 250 10 107 3 224 8 260 10 36 2
151 7 255 10 105 3 215 8 245 10 30 3 150 7 265 10 116 3 230 8 255 10 25 2
140 7 255 10 116 3 230 8 255 10 25 2 137 7 250 10 113 3 230 8 260 10 30 2
147 7 260 10 113 3 225 8 250 10 25 2 142 7 260 10 118 3 231 8 250 10 19 2
136 7 260 10 124 4 236 8 250 10 14 2 131 6 260 10 129 3 242 8 250 10 8 2
123 6 255 10 132 4 251 8 265 10 14 2 124 6 245 10 121 3 240 8 265 10 25 2
135 7 245 10 110 3 229 8 265 10 36 2 151 7 255 10 105 3 219 8 255 10 36 2
151 7 255 10 105 3 226 8 270 10 44 2 152 7 240 10 294 11 448 32 672 90 625
164 1182 578 1528 1136 72 115 181 341 229 470 51 138 104 347 127 501 26 171
32 461 14 708 -7 102 -16 232 -19 290 -4 58 -8 130 -11 160 -2 30 -7 93 -10
140 -3 47 -9 159 -15 250 -6 91 -13 197 -15 235 -3 39 -28 426 -55 860 -28
435 -52 822 -55 860 -3 39 -14 214 -25 390 -11 176 -22 352 -25 390 -3 39 -93
1445 -200 3125 -107 1680 -197 3087 -200 3125 -3 39 -21 320 -40 625 -19 305
-37 587 -40 625 -3 39 -21 320 -40 625 -19 305 -37 587 -40 625 -3 39 -21 320
-40 625 -19 305 -37 587 -40 625 -3 39 -21 320 -40 625 -19 305 -37 587 -40
625 -3 39 -21 320 -40 625 -19 305 -37 587 -40 625 -3 39 -21 320 -40 625 -19
305 -37 587 -40 625 -3 39 -48 743 -100 1565 -53 822 -102 1549 -110 1615 -39
301 -124 571 -270 852 -252 484 -646 873 -1136 1119 -230 115 -408 172 -774
249 -121 26 -292 62 -380 80 -88 19 -437 92 -775 164 -338 71 -979 207 -1425
301 -445 94 -1086 229 -1422 301 -337 71 -889 187 -1225 258 -1146 242 -2231
472 -2918 617 -377 80 -982 207 -1345 284 -363 77 -725 153 -805 170 -80 17
-399 85 -710 150 -992 210 -1791 378 -1940 410 -80 17 -399 84 -710 150 -311
66 -630 133 -710 150 -149 32 -948 200 -1940 410 -311 65 -630 133 -710 150
-80 17 -399 84 -710 150 -311 66 -630 133 -710 150 -149 32 -948 200 -1940
410 -311 65 -630 133 -710 150 -289 61 -1286 271 -1335 281 -185 37 -540 50
-749 28z"/>
</g>
</svg>
